<?xml version="1.0" encoding="UTF-8" standalone="no"?>
<!-- Created with Inkscape (http://www.inkscape.org/) -->

<svg
   xmlns:dc="http://purl.org/dc/elements/1.1/"
   xmlns:cc="http://creativecommons.org/ns#"
   xmlns:rdf="http://www.w3.org/1999/02/22-rdf-syntax-ns#"
   xmlns:svg="http://www.w3.org/2000/svg"
   xmlns="http://www.w3.org/2000/svg"
   xmlns:sodipodi="http://sodipodi.sourceforge.net/DTD/sodipodi-0.dtd"
   xmlns:inkscape="http://www.inkscape.org/namespaces/inkscape"
   width="400"
   height="400"
   id="svg6386"
   version="1.1"
   inkscape:version="0.48.4 r9939"
   sodipodi:docname="Wind power.svg">
  <title
     id="title6501">Wind power</title>
  <defs
     id="defs6388" />
  <sodipodi:namedview
     id="base"
     pagecolor="#ffffff"
     bordercolor="#666666"
     borderopacity="1.0"
     inkscape:pageopacity="0.0"
     inkscape:pageshadow="2"
     inkscape:zoom="0.605"
     inkscape:cx="200"
     inkscape:cy="200"
     inkscape:document-units="px"
     inkscape:current-layer="layer1"
     showgrid="false"
     inkscape:window-width="944"
     inkscape:window-height="1041"
     inkscape:window-x="0"
     inkscape:window-y="0"
     inkscape:window-maximized="0" />
  <metadata
     id="metadata6391">
    <rdf:RDF>
      <cc:Work
         rdf:about="">
        <dc:format>image/svg+xml</dc:format>
        <dc:type
           rdf:resource="http://purl.org/dc/dcmitype/StillImage" />
        <dc:title>Wind power</dc:title>
        <dc:date>2017-03-10</dc:date>
        <dc:creator>
          <cc:Agent>
            <dc:title>m1981</dc:title>
          </cc:Agent>
        </dc:creator>
        <dc:rights>
          <cc:Agent>
            <dc:title>Public domain</dc:title>
          </cc:Agent>
        </dc:rights>
        <dc:publisher>
          <cc:Agent>
            <dc:title>Inkscape</dc:title>
          </cc:Agent>
        </dc:publisher>
        <dc:subject>
          <rdf:Bag>
            <rdf:li>icon</rdf:li>
            <rdf:li>wind</rdf:li>
            <rdf:li>eolian</rdf:li>
            <rdf:li>energy</rdf:li>
            <rdf:li>renewable</rdf:li>
            <rdf:li>green</rdf:li>
            <rdf:li></rdf:li>
          </rdf:Bag>
        </dc:subject>
      </cc:Work>
    </rdf:RDF>
  </metadata>
  <g
     inkscape:label="Calque 1"
     inkscape:groupmode="layer"
     id="layer1"
     transform="translate(0,-652.36218)">
    <path
       id="path8070"
       d="m 199.68047,683.62457 a 5.0005,5.0005 0 0 0 -0.25,0.031 c -39.72047,0.4473 -76.77784,19.8615 -99.687501,52.3125 a 5.0005,5.0005 0 0 0 0.0625,6 5.0005,5.0005 0 0 0 8.062501,-0.25 c 21.06452,-29.8372 55.16703,-47.7137 91.6875,-48.125 a 5.0005,5.0005 0 1 0 0.125,-9.9687 z m 67.53126,18.5937 a 10.000998,10.000998 0 0 0 -6.96875,2.8125 c 0,0 -13.99962,13.069 -28.78125,28.25 -7.39083,7.5904 -14.96826,15.7216 -21.25001,23.1562 -6.28175,7.4347 -11.21974,13.3004 -13.84375,20.4376 -1.56426,4.2545 -1.30979,8.6959 -0.21875,12.3124 -1.36971,0.2959 -2.67948,0.7664 -3.90625,1.3438 -1.83651,-1.7508 -4.30138,-2.8582 -6.84375,-2.875 -0.74286,0 -1.49425,0.088 -2.21875,0.25 l -81.9375,4.0938 c -7.682641,-2.1857 -12.875001,-3.75 -12.875001,-3.75 -2.5331,-0.8717 -5.42672,-0.6559 -7.8125,0.5624 -2.38578,1.2184 -4.22101,3.437 -5,6 -0.77899,2.5631 -0.49184,5.4102 0.8125,7.75 1.30434,2.3399 3.59775,4.1273 6.1875,4.8126 0,0 18.337111,5.5703 38.875001,10.7812 10.26895,2.6054 21.07677,5.121 30.65625,6.8438 9.57948,1.7226 17.16329,3.0773 24.65625,1.7812 4.27698,-0.7398 7.86892,-3.0402 10.4375,-5.6562 0.006,0.01 0.0254,-0.01 0.0312,0 1.04689,0.9089 2.20562,1.7438 3.4375,2.4687 -0.54243,2.3777 -0.2131,4.9587 0.96875,7.0937 a 5.0005,5.0005 0 0 0 0.21875,0.375 l 15.125,23.4063 a 5.0005,5.0005 0 0 0 -0.0625,0.75 l 0,160.75003 a 5.0005,5.0005 0 1 0 10,0 l 0,-146.12503 6.84375,10.5937 9.90626,135.90633 a 5.0005,5.0005 0 1 0 9.96875,-0.75 l -8.5625,-117.68753 2.3125,3.5625 c 1.96677,7.7981 3.21875,13.125 3.21875,13.125 0.51303,2.6285 2.12708,5.0131 4.375,6.4687 2.24791,1.4558 5.11035,1.9509 7.71875,1.3438 2.6084,-0.6071 4.93841,-2.2951 6.3125,-4.5938 1.37409,-2.2987 1.76286,-5.1651 1.0625,-7.75 0,0 -4.3375,-18.6395 -10.09375,-39.0312 -2.87813,-10.1959 -6.10852,-20.8426 -9.40625,-30 -1.93589,-5.3758 -3.65056,-10.0742 -5.71875,-14.2188 l 33.71875,-3.8437 a 5.0005,5.0005 0 0 0 4.4375,-4.9687 l 0,-21 a 5.0005,5.0005 0 0 0 -4.4375,-4.9688 l -34.6875,-3.9688 30.3125,-59.1562 c 5.75048,-5.582 9.71875,-9.2812 9.71875,-9.2812 a 10.000998,10.000998 0 0 0 -6.6875,-17.4063 z m -107.65626,8.875 a 5.0035412,5.0035412 0 0 0 -2.15625,0.4375 c -11.98823,5.4426 -22.92712,13.1429 -32.09375,22.5938 a 5.0005,5.0005 0 0 0 -0.53125,6.375 5.0005,5.0005 0 0 0 7.78125,0.5937 c 8.29546,-8.552 18.08889,-15.5122 28.9375,-20.4375 a 5.0035412,5.0035412 0 0 0 -1.9375,-9.5625 z m -11.09375,29.2187 a 5.0005,5.0005 0 0 0 -3.28125,1.3438 c -5.81671,4.9303 -10.9611,10.5916 -15.28125,16.875 a 5.0005,5.0005 0 0 0 0.1875,6.0625 5.0005,5.0005 0 0 0 8.09375,-0.4375 c 3.81829,-5.5528 8.29655,-10.5174 13.4375,-14.875 a 5.0005,5.0005 0 0 0 -3.15625,-8.9688 z m 92.53126,11.9063 -19.28126,37.625 c -0.91881,-0.6335 -2.76592,-1.9765 -4.34375,-3.625 -1.06933,-1.1172 -1.80729,-2.2358 -2.03125,-2.75 0.56607,-1.2532 4.56124,-7.5031 10.15625,-14.125 4.48936,-5.3133 9.91866,-11.2697 15.50001,-17.125 z m 67.6875,0.4063 a 5.0004999,5.0004999 0 0 0 -0.40625,0.031 5.0004999,5.0004999 0 0 0 -3.8125,7.0938 c 15.30752,33.1609 13.71654,71.6354 -4.1875,103.4687 a 5.0004999,5.0004999 0 1 0 8.6875,4.875 c 19.47285,-34.6226 21.1798,-76.4341 4.53125,-112.5 a 5.0004999,5.0004999 0 0 0 -4.8125,-2.9687 z m -34.15625,14.875 a 5.0005,5.0005 0 0 0 -0.96875,0.062 5.0005,5.0005 0 0 0 -3.6875,7.25 c 2.8998,6.0832 4.95296,12.4316 6.15625,19.0626 a 5.001811,5.001811 0 1 0 9.84375,-1.7813 c -1.36138,-7.5025 -3.71844,-14.8044 -7,-21.6875 a 5.0005,5.0005 0 0 0 -4.34375,-2.9062 z m 22.96875,7.4687 a 5.0005,5.0005 0 0 0 -0.4375,0.031 5.0005,5.0005 0 0 0 -4.40625,6.4374 c 3.25851,11.4601 4.37768,23.4235 3.21875,35.2813 a 5.0109771,5.0109771 0 1 0 9.96875,1.0313 c 1.28073,-13.1034 0.0702,-26.4298 -3.53125,-39.0938 a 5.0005,5.0005 0 0 0 -4.8125,-3.6875 z m -68.5,22.625 34,3.875 0,12.0625 -34.53126,3.9375 c -3.30121,-3.1929 -7.56595,-4.8641 -11.21875,-5.3437 -0.6841,-0.09 -1.34608,-0.1547 -2,-0.1876 0.23147,-1.0922 0.37717,-2.1596 0.4375,-3.2187 a 10.008575,10.008575 0 0 0 9.875,-4.5313 5.0034184,5.0034184 0 0 0 0.1875,-0.2812 10.008575,10.008575 0 0 0 0.0937,-0.125 5.0034184,5.0034184 0 0 0 0.0312,-0.062 10.008575,10.008575 0 0 0 0.0625,-0.125 l 0.40625,-0.75 a 10.008575,10.008575 0 0 0 0.0625,-0.1563 l 2.59376,-5.0937 z m -53.68751,0.6875 c -0.0794,1.0898 -0.32065,3.4021 -0.96874,5.625 -0.43282,1.4844 -1.04165,2.7052 -1.375,3.1562 -1.37732,0.1355 -8.7871,-0.1854 -17.31251,-1.7187 -6.87416,-1.2362 -14.78784,-2.9863 -22.6875,-4.9063 l 42.34375,-2.1562 z m 24.40625,0.5312 c 1.28446,0 2.15652,0.3036 2.90625,0.9688 0.0883,0.094 0.19327,0.1893 0.28125,0.2812 0.3412,0.3561 0.66439,0.7965 1,1.3126 1.13904,1.7512 1.8125,4.4706 1.8125,6.125 0,1.6542 -0.67348,4.3738 -1.8125,6.125 -1.13902,1.7511 -2.1323,2.5624 -4.1875,2.5624 -2.05512,0 -4.73584,-1.326 -6.78125,-3.375 -2.04541,-2.0489 -3.0625,-4.8478 -3.0625,-5.3124 0,-0.4648 1.01708,-3.2635 3.0625,-5.3126 2.04542,-2.049 4.72619,-3.375 6.78125,-3.375 z m 14.3125,33.125 c 0.23067,0 0.42378,0.015 0.5625,0.031 0.81348,1.1416 4.22614,7.7072 7.15625,15.8437 2.36785,6.5753 4.80659,14.2905 7.09375,22.0938 l -23.03125,-35.625 c 0.98847,-0.4711 3.10419,-1.3896 5.34375,-1.9375 1.12906,-0.2761 2.183,-0.3961 2.875,-0.4063 z m -115.875001,30.8126 a 5.0005,5.0005 0 0 0 -3.6875,7.9687 c 20.247621,34.1753 55.598031,56.5414 95.156251,60.1563 a 5.0005,5.0005 0 0 0 5.1875,-3.0313 5.0005,5.0005 0 0 0 -4.28125,-6.875 c -36.37203,-3.3238 -68.88358,-23.9218 -87.5,-55.3437 a 5.0005,5.0005 0 0 0 -4.875001,-2.875 z m 75.093761,16.1874 a 5.0005,5.0005 0 0 0 -1.40625,9.7813 c 7.17808,2.5723 14.64828,4.1817 22.24999,4.7813 a 5.0005,5.0005 0 0 0 5.15625,-3.1876 5.0005,5.0005 0 0 0 -4.4375,-6.8124 c -6.71808,-0.5303 -13.24951,-1.9142 -19.59375,-4.1876 a 5.0005,5.0005 0 0 0 -1.96874,-0.375 z m -31.03126,5.1876 a 5.0035368,5.0035368 0 0 0 -2.59375,9.0624 c 10.7075,7.6608 22.85696,13.287 35.625,16.5 a 5.0004999,5.0004999 0 0 0 5.8125,-2.75 5.0004999,5.0004999 0 0 0 -3.40625,-7.0312 c -11.55397,-2.908 -22.46657,-7.9113 -32.15625,-14.8438 a 5.0035368,5.0035368 0 0 0 -3.28125,-0.9374 z"
       style="font-size:medium;font-style:normal;font-variant:normal;font-weight:normal;font-stretch:normal;text-indent:0;text-align:start;text-decoration:none;line-height:normal;letter-spacing:normal;word-spacing:normal;text-transform:none;direction:ltr;block-progression:tb;writing-mode:lr-tb;text-anchor:start;baseline-shift:baseline;color:#000000;fill:#4d4d4d;fill-opacity:1;stroke:none;stroke-width:19.99999619;marker:none;visibility:visible;display:inline;overflow:visible;enable-background:accumulate;font-family:Sans;-inkscape-font-specification:Sans"
       inkscape:connector-curvature="0" />
  </g>
</svg>
